<svg width="41" height="40" viewBox="0 0 41 40" fill="none" xmlns="http://www.w3.org/2000/svg">
<g id="Group">
<path id="Vector" d="M20.545 0H20.4539C9.43328 0 0.499268 8.93392 0.499268 19.9545V20.0455C0.499268 31.0661 9.43328 40 20.4539 40H20.545C31.5657 40 40.4997 31.0661 40.4997 20.0455V19.9545C40.4997 8.93392 31.5657 0 20.545 0Z" fill="#5605BA"/>
<g id="Group_2">
<path id="Vector_2" d="M26.6888 8.1377H14.3116C10.8922 8.1377 8.11035 10.9195 8.11035 14.3389V25.6621C8.11035 29.0815 10.8922 31.8633 14.3116 31.8633H26.6888C30.1083 31.8633 32.8901 29.0815 32.8901 25.6621V14.3389C32.8901 10.9195 30.1083 8.1377 26.6888 8.1377ZM10.298 14.3389C10.298 12.1261 12.0988 10.3253 14.3116 10.3253H26.6888C28.9017 10.3253 30.7025 12.1261 30.7025 14.3389V25.6621C30.7025 27.8749 28.9017 29.6757 26.6888 29.6757H14.3116C12.0988 29.6757 10.298 27.8749 10.298 25.6621V14.3389Z" fill="white"/>
<path id="Vector_3" d="M20.5004 25.7675C23.6802 25.7675 26.2686 23.1805 26.2686 19.9993C26.2686 16.8182 23.6816 14.2312 20.5004 14.2312C17.3192 14.2312 14.7322 16.8182 14.7322 19.9993C14.7322 23.1805 17.3192 25.7675 20.5004 25.7675ZM20.5004 16.4202C22.475 16.4202 24.081 18.0262 24.081 20.0007C24.081 21.9753 22.475 23.5813 20.5004 23.5813C18.5258 23.5813 16.9198 21.9753 16.9198 20.0007C16.9198 18.0262 18.5258 16.4202 20.5004 16.4202Z" fill="white"/>
<path id="Vector_4" d="M26.8022 15.1632C27.6585 15.1632 28.3564 14.4667 28.3564 13.6091C28.3564 12.7514 27.6599 12.0549 26.8022 12.0549C25.9445 12.0549 25.248 12.7514 25.248 13.6091C25.248 14.4667 25.9445 15.1632 26.8022 15.1632Z" fill="white"/>
</g>
</g>
</svg>
