<svg width="25" height="24" viewBox="0 0 25 24" fill="none" xmlns="http://www.w3.org/2000/svg">
<g id="vuesax/outline/location">
<g id="location">
<path id="Vector" d="M12.3334 14.1699C10.2034 14.1699 8.46338 12.4399 8.46338 10.2999C8.46338 8.15994 10.2034 6.43994 12.3334 6.43994C14.4634 6.43994 16.2034 8.16994 16.2034 10.3099C16.2034 12.4499 14.4634 14.1699 12.3334 14.1699ZM12.3334 7.93994C11.0334 7.93994 9.96338 8.99994 9.96338 10.3099C9.96338 11.6199 11.0234 12.6799 12.3334 12.6799C13.6434 12.6799 14.7034 11.6199 14.7034 10.3099C14.7034 8.99994 13.6334 7.93994 12.3334 7.93994Z" fill="#8E8E93"/>
<path id="Vector_2" d="M12.3334 22.76C10.8534 22.76 9.36343 22.2 8.20343 21.09C5.25343 18.25 1.99343 13.72 3.22343 8.33C4.33343 3.44 8.60343 1.25 12.3334 1.25C12.3334 1.25 12.3334 1.25 12.3434 1.25C16.0734 1.25 20.3434 3.44 21.4534 8.34C22.6734 13.73 19.4134 18.25 16.4634 21.09C15.3034 22.2 13.8134 22.76 12.3334 22.76ZM12.3334 2.75C9.42343 2.75 5.68343 4.3 4.69343 8.66C3.61343 13.37 6.57343 17.43 9.25343 20C10.9834 21.67 13.6934 21.67 15.4234 20C18.0934 17.43 21.0534 13.37 19.9934 8.66C18.9934 4.3 15.2434 2.75 12.3334 2.75Z" fill="#8E8E93"/>
</g>
</g>
</svg>
