<svg width="40" height="40" viewBox="0 0 40 40" fill="none" xmlns="http://www.w3.org/2000/svg">
<g id="Frame 1000001097">
<circle id="Ellipse 352" opacity="0.5" cx="20" cy="20" r="20" fill="#F1E6FE"/>
<g id="Group">
<path id="Vector" d="M18.953 10H10.3952C10.2075 10 10.0649 10.1475 10.0649 10.3209V18.6447C10.0649 18.818 10.2075 18.9656 10.3952 18.9656H18.953C19.1407 18.9656 19.2922 18.8183 19.2922 18.6447V10.3209C19.2922 10.1475 19.1407 10 18.953 10ZM17.7158 11.052L15.9269 12.7803V11.3968C16.6175 11.1753 17.2459 11.084 17.7158 11.052ZM15.2577 13.4271L14.0098 14.6331V12.3861C14.3473 12.1349 14.7027 11.9039 15.0975 11.7174C15.1516 11.6918 15.2039 11.6752 15.2577 11.6516V13.4274V13.4271ZM13.3403 15.2796L12.4829 16.1083L12.4418 14.079C12.7033 13.6648 13.0058 13.2956 13.3403 12.9621V15.2796ZM11.7952 15.3861L11.8224 16.7464L11.2697 17.2802C11.3918 16.5924 11.5702 15.9644 11.7949 15.3864H11.7952V15.3861ZM12.288 17.2136L12.2955 17.2142L14.1784 17.2836H14.1805C13.1663 17.7472 12.1896 17.8877 11.5526 17.924L12.288 17.2136ZM15.2357 16.6677L12.947 16.5812H12.9427L13.8161 15.7371L16.3297 15.6747C16.005 16.0501 15.6397 16.3805 15.2357 16.6677ZM16.8266 15.0116L14.5072 15.0692L15.7401 13.8784L17.4897 13.7716C17.3023 14.2215 17.0785 14.6317 16.8266 15.0119V15.0116ZM17.7329 13.1054L16.4596 13.183L18.0961 11.6019C18.0056 12.1352 17.885 12.637 17.7332 13.1054H17.7329ZM16.1264 10.6505C15.2779 10.8747 14.3161 11.2771 13.4196 11.995C12.0835 13.0638 11.1885 14.6056 10.7338 16.5778V10.6505H16.1264ZM13.24 18.3151C13.9401 18.1288 14.7143 17.8099 15.4674 17.3036C15.5186 17.2845 15.5608 17.2521 15.5961 17.2128C15.7086 17.1333 15.8228 17.0633 15.9338 16.9745C16.4362 16.5724 16.8697 16.0967 17.2488 15.5643C17.2847 15.5308 17.3136 15.4909 17.3315 15.4449C17.9203 14.5825 18.3521 13.5584 18.6228 12.3765V18.3148H13.24V18.3151Z" fill="#2E0363"/>
<path id="Vector_2" d="M30.3846 10H21.8265C21.6391 10 21.4875 10.1388 21.4875 10.3209V18.6447C21.4875 18.8268 21.6391 18.9656 21.8265 18.9656H30.3846C30.563 18.9656 30.7146 18.827 30.7146 18.6447V10.3209C30.7146 10.1388 30.563 10 30.3846 10ZM30.0454 16.7436C29.5491 16.5494 28.9915 16.5578 28.499 16.7891L28.2133 16.9192C27.8654 17.0838 27.4637 17.0838 27.1158 16.9192L26.8391 16.7891C26.3038 16.5376 25.6878 16.5376 25.1525 16.7891L24.8668 16.9192C24.5189 17.0838 24.1172 17.0838 23.7693 16.9192L23.4925 16.7891C23.0735 16.5887 22.5989 16.555 22.1565 16.6694V15.6255L22.2073 15.6014C22.5555 15.4367 22.9569 15.4367 23.3048 15.6014L23.5906 15.7315C24.1259 15.9829 24.7329 15.9829 25.2682 15.7315L25.5539 15.6014C25.9021 15.4367 26.3035 15.4367 26.6514 15.6014L26.9281 15.7315C27.4637 15.9829 28.0794 15.9829 28.6147 15.7315L28.9004 15.6014C29.2486 15.4367 29.65 15.4367 29.9979 15.6014L30.0451 15.6236V16.7436H30.0454ZM30.0454 14.927C29.5725 14.777 29.0618 14.7978 28.606 15.0116L28.3206 15.1417C27.9724 15.3063 27.571 15.3151 27.2231 15.1417L26.9464 15.0116C26.4108 14.7601 25.7951 14.7601 25.2595 15.0116L24.9741 15.1417C24.6259 15.3151 24.2245 15.3063 23.8766 15.1417L23.5998 15.0116C23.1432 14.7972 22.6304 14.777 22.1567 14.9284V13.848L22.2076 13.8239C22.5558 13.6592 22.9572 13.6592 23.3051 13.8239L23.5909 13.954C24.1261 14.2055 24.7421 14.2055 25.2685 13.954L25.5542 13.8239C25.9024 13.6592 26.3038 13.6592 26.6517 13.8239L26.9374 13.954C27.464 14.2055 28.0797 14.2055 28.615 13.954L28.9007 13.8239C29.2489 13.6592 29.6503 13.6592 29.9982 13.8239L30.0454 13.8461V14.927ZM30.0454 13.1495C29.5725 12.9998 29.0618 13.0203 28.606 13.2341L28.3206 13.3729C27.9724 13.5376 27.571 13.5288 27.2231 13.3729L26.9464 13.2341C26.4108 12.9826 25.7951 12.9826 25.2595 13.2341L24.9741 13.3729C24.6348 13.5288 24.2245 13.5288 23.8766 13.3729L23.5998 13.2341C23.1432 13.0197 22.6304 12.9998 22.1567 13.1509V12.0703L22.2076 12.0461C22.5558 11.8815 22.9572 11.8815 23.3051 12.0461L23.5909 12.1762C24.1261 12.4277 24.7421 12.4277 25.2685 12.1762L25.5542 12.0461C25.8931 11.8815 26.3038 11.8815 26.6517 12.0461L26.9374 12.1762C27.464 12.4277 28.0797 12.4277 28.615 12.1762L28.9007 12.0461C29.2489 11.8815 29.6503 11.8815 29.9982 12.0461L30.0454 12.0683V13.1492V13.1495ZM30.0454 10.6502V11.374C29.5766 11.222 29.0635 11.2417 28.606 11.4566L28.3206 11.5951C27.9724 11.7598 27.571 11.7598 27.2231 11.5951L26.9464 11.4566C26.4108 11.2051 25.7951 11.2138 25.2595 11.4566L24.9741 11.5951C24.6348 11.7514 24.2245 11.7514 23.8766 11.5951L23.5998 11.4566C23.1432 11.2422 22.6304 11.222 22.1567 11.3734V10.6502H30.0454ZM22.1567 18.3148V17.3513C22.4919 17.2187 22.8684 17.2218 23.1981 17.3696L23.4839 17.5084C24.0194 17.7599 24.6262 17.7599 25.1618 17.5084L25.4472 17.3696C25.7864 17.2134 26.1968 17.2134 26.5447 17.3696L26.8214 17.5084C27.357 17.7599 27.9727 17.7599 28.5083 17.5084L28.7937 17.3696C29.1419 17.2134 29.5433 17.2134 29.8912 17.3696L30.0454 17.4432V18.3148H22.1567Z" fill="#2E0363"/>
<path id="Vector_3" d="M18.962 21.026H10.4042C10.2168 21.026 10.0649 21.1732 10.0649 21.3553V29.6704C10.0649 29.8525 10.2168 30 10.4042 30H18.962C19.1494 30 19.2922 29.8525 19.2922 29.6704V21.3553C19.2922 21.1732 19.1494 21.026 18.962 21.026ZM18.623 21.6762V25.2486C18.5961 25.2312 18.5695 25.2138 18.5426 25.2053L16.7311 24.5638L17.2667 23.4368C17.3202 23.3154 17.2936 23.1679 17.1953 23.0727C17.0973 22.9774 16.9454 22.9513 16.8205 23.0033L15.6603 23.5234L14.9911 21.7633C14.9821 21.7285 14.9552 21.7026 14.9376 21.6765H18.6233H18.623V21.6762ZM15.9726 26.4189L16.276 27.0604L15.6157 26.7656C15.5266 26.7308 15.4283 26.7223 15.3482 26.7569C15.2589 26.7915 15.1964 26.8609 15.1605 26.9477L14.6787 28.2138L14.2056 26.9477C14.17 26.8609 14.0986 26.7915 14.0182 26.7569C13.9737 26.7482 13.9291 26.7395 13.8843 26.7395C13.8395 26.7395 13.795 26.7482 13.7504 26.7656L13.0899 27.0604L13.3933 26.4189C13.4291 26.3408 13.4291 26.2455 13.3933 26.1587C13.3574 26.0722 13.2863 26.0115 13.2059 25.9766L11.9031 25.5169L13.2059 25.0488C13.2863 25.0143 13.3574 24.9536 13.3933 24.8667C13.4291 24.7799 13.4291 24.6934 13.3933 24.6066L13.0899 23.9651L13.7504 24.2598C13.8305 24.2947 13.9289 24.3031 14.0179 24.2685C14.0983 24.2337 14.1698 24.1646 14.2053 24.0777L14.6784 22.8204L15.1602 24.0777C15.1961 24.1646 15.2586 24.2337 15.3479 24.2685C15.428 24.3034 15.5264 24.2947 15.6154 24.2598L16.2757 23.9651L15.9723 24.6066C15.9278 24.6934 15.9278 24.7799 15.9633 24.8667C15.9992 24.9536 16.0703 25.0143 16.1597 25.0488L17.4535 25.5169L16.1597 25.9766C16.0703 26.0115 15.9992 26.0719 15.9633 26.1587C15.9275 26.2455 15.9275 26.3408 15.9723 26.4189H15.9726ZM10.7341 21.6762H14.4286C14.402 21.7023 14.384 21.7282 14.3664 21.763L13.6972 23.5231L12.5459 23.003C12.412 22.951 12.2692 22.9769 12.1711 23.0724C12.0638 23.1676 12.0372 23.3152 12.0997 23.4365L12.6353 24.5636L10.8238 25.205C10.7879 25.2138 10.7613 25.2312 10.7344 25.257V21.6762H10.7341ZM10.7341 29.3495V25.7687C10.761 25.7861 10.7876 25.8035 10.8235 25.8207L12.635 26.4709L12.0994 27.5892C12.0369 27.7106 12.0636 27.8578 12.1709 27.9533C12.2689 28.0486 12.4204 28.0747 12.5456 28.0227L13.6969 27.5026L14.3661 29.2627C14.3751 29.2975 14.393 29.3234 14.4107 29.3495H10.7338H10.7341ZM18.623 29.3495H14.9462C14.9642 29.3234 14.9821 29.2975 14.9908 29.2627L15.66 27.5026L16.8202 28.0227C16.9451 28.0747 17.097 28.0489 17.195 27.9533C17.2933 27.8578 17.3199 27.7106 17.2664 27.5892L16.7309 26.4709L18.5424 25.8207C18.5693 25.812 18.5959 25.7945 18.6228 25.7774V29.3498H18.623V29.3495Z" fill="#2E0363"/>
<g id="Group_2">
<path id="Vector_4" d="M30.3846 21.026H21.8265C21.6391 21.026 21.4875 21.1732 21.4875 21.3553V29.6704C21.4875 29.8525 21.6391 30 21.8265 30H30.3846C30.572 30 30.7146 29.8525 30.7146 29.6704V21.3553C30.7146 21.1732 30.572 21.026 30.3846 21.026ZM30.0454 24.7369L26.905 21.6765H30.0454V24.7369ZM25.3006 21.6765L22.1567 24.7403V21.6765H25.3006ZM22.1567 29.3498V25.6614L26.1028 21.8156L30.0454 25.658V29.3498H22.1567Z" fill="#2E0363"/>
<path id="Vector_5" d="M24.481 26.0042H25.9101V24.6156C25.1207 24.6156 24.481 25.2374 24.481 26.0042Z" fill="#2E0363"/>
<path id="Vector_6" d="M26.2959 24.6158V26.0045H27.7251C27.7251 25.2377 27.0851 24.6158 26.2959 24.6158Z" fill="#2E0363"/>
<path id="Vector_7" d="M25.9101 26.4121H24.481V27.8007H25.9101V26.4121Z" fill="#2E0363"/>
<path id="Vector_8" d="M27.7251 26.4121H26.2959V27.8007H27.7251V26.4121Z" fill="#2E0363"/>
</g>
</g>
</g>
</svg>
