<svg width="25" height="24" viewBox="0 0 25 24" fill="none" xmlns="http://www.w3.org/2000/svg">
<g id="vuesax/outline/discount-shape">
<g id="discount-shape">
<path id="Vector" d="M12.6666 22.7498C12.0366 22.7498 11.4466 22.5099 11.0066 22.0599L9.48663 20.5399C9.36663 20.4199 9.04663 20.2899 8.88663 20.2899H6.72662C5.42662 20.2899 4.37662 19.2398 4.37662 17.9398V15.7799C4.37662 15.6199 4.24662 15.2999 4.12662 15.1799L2.60663 13.6599C2.16663 13.2199 1.91663 12.6298 1.91663 11.9998C1.91663 11.3698 2.15663 10.7798 2.60663 10.3398L4.12662 8.81979C4.24662 8.69979 4.37662 8.37981 4.37662 8.21981V6.0599C4.37662 4.7599 5.42662 3.7098 6.72662 3.7098H8.88663C9.04663 3.7098 9.36663 3.5798 9.48663 3.4598L11.0066 1.93979C11.8866 1.05979 13.4466 1.05979 14.3266 1.93979L15.8466 3.4598C15.9666 3.5798 16.2866 3.7098 16.4466 3.7098H18.6066C19.9066 3.7098 20.9566 4.7599 20.9566 6.0599V8.21981C20.9566 8.37981 21.0866 8.69979 21.2066 8.81979L22.7266 10.3398C23.1666 10.7798 23.4166 11.3698 23.4166 11.9998C23.4166 12.6298 23.1766 13.2199 22.7266 13.6599L21.2066 15.1799C21.0866 15.2999 20.9566 15.6199 20.9566 15.7799V17.9398C20.9566 19.2398 19.9066 20.2899 18.6066 20.2899H16.4466C16.2866 20.2899 15.9666 20.4199 15.8466 20.5399L14.3266 22.0599C13.8866 22.5099 13.2966 22.7498 12.6666 22.7498ZM5.18662 14.1198C5.58662 14.5198 5.87662 15.2199 5.87662 15.7799V17.9398C5.87662 18.4098 6.25662 18.7899 6.72662 18.7899H8.88663C9.44663 18.7899 10.1466 19.0798 10.5466 19.4798L12.0666 20.9998C12.3866 21.3198 12.9466 21.3198 13.2666 20.9998L14.7866 19.4798C15.1866 19.0798 15.8866 18.7899 16.4466 18.7899H18.6066C19.0766 18.7899 19.4566 18.4098 19.4566 17.9398V15.7799C19.4566 15.2199 19.7466 14.5198 20.1466 14.1198L21.6666 12.5998C21.8266 12.4398 21.9166 12.2298 21.9166 11.9998C21.9166 11.7698 21.8266 11.5599 21.6666 11.3999L20.1466 9.87985C19.7466 9.47985 19.4566 8.77981 19.4566 8.21981V6.0599C19.4566 5.5899 19.0766 5.2098 18.6066 5.2098H16.4466C15.8866 5.2098 15.1866 4.91986 14.7866 4.51986L13.2666 2.99984C12.9466 2.67984 12.3866 2.67984 12.0666 2.99984L10.5466 4.51986C10.1466 4.91986 9.44663 5.2098 8.88663 5.2098H6.72662C6.25662 5.2098 5.87662 5.5899 5.87662 6.0599V8.21981C5.87662 8.77981 5.58662 9.47985 5.18662 9.87985L3.66663 11.3999C3.50663 11.5599 3.41663 11.7698 3.41663 11.9998C3.41663 12.2298 3.50663 12.4398 3.66663 12.5998L5.18662 14.1198Z" fill="#8E8E93"/>
<path id="Vector_2" d="M15.6669 16C15.1069 16 14.6569 15.55 14.6569 15C14.6569 14.45 15.1069 14 15.6569 14C16.2069 14 16.6569 14.45 16.6569 15C16.6569 15.55 16.2169 16 15.6669 16Z" fill="#8E8E93"/>
<path id="Vector_3" d="M9.67664 10C9.11664 10 8.66663 9.55 8.66663 9C8.66663 8.45 9.11663 8 9.66663 8C10.2166 8 10.6666 8.45 10.6666 9C10.6666 9.55 10.2266 10 9.67664 10Z" fill="#8E8E93"/>
<path id="Vector_4" d="M9.66657 15.75C9.47657 15.75 9.28657 15.68 9.13657 15.53C8.84657 15.24 8.84657 14.7599 9.13657 14.4699L15.1366 8.46994C15.4266 8.17994 15.9066 8.17994 16.1966 8.46994C16.4866 8.75994 16.4866 9.24 16.1966 9.53L10.1966 15.53C10.0466 15.68 9.85657 15.75 9.66657 15.75Z" fill="#8E8E93"/>
</g>
</g>
</svg>
