<svg width="41" height="40" viewBox="0 0 41 40" fill="none" xmlns="http://www.w3.org/2000/svg">
<g id="Group">
<path id="Vector" d="M20.5455 0H20.4544C9.43377 0 0.499756 8.93392 0.499756 19.9545V20.0455C0.499756 31.0661 9.43377 40 20.4544 40H20.5455C31.5662 40 40.5002 31.0661 40.5002 20.0455V19.9545C40.5002 8.93392 31.5662 0 20.5455 0Z" fill="#5605BA"/>
<path id="Vector_2" d="M30.1692 14.4707V18.2475C29.5092 18.183 28.6515 18.0331 27.7027 17.6855C26.4639 17.2315 25.5418 16.6106 24.9378 16.13V23.7634L24.9224 23.7395C24.9322 23.8909 24.9378 24.045 24.9378 24.2006C24.9378 27.9914 21.8533 31.0772 18.061 31.0772C14.2688 31.0772 11.1843 27.9914 11.1843 24.2006C11.1843 20.4098 14.2688 17.3226 18.061 17.3226C18.4324 17.3226 18.7968 17.352 19.1527 17.4094V21.1315C18.8108 21.0096 18.4436 20.9438 18.061 20.9438C16.2658 20.9438 14.8042 22.404 14.8042 24.2006C14.8042 25.9972 16.2658 27.4574 18.061 27.4574C19.8563 27.4574 21.3179 25.9958 21.3179 24.2006C21.3179 24.1333 21.3165 24.0661 21.3123 23.9988V9.16504H25.0863C25.1003 9.48456 25.1129 9.80688 25.127 10.1264C25.1522 10.7556 25.3764 11.3596 25.7674 11.8543C26.2257 12.4359 26.9025 13.1114 27.8527 13.6509C28.7426 14.154 29.5778 14.3712 30.1692 14.4735V14.4707Z" fill="white"/>
</g>
</svg>
