<svg width="24" height="24" viewBox="0 0 24 24" fill="none" xmlns="http://www.w3.org/2000/svg">
<g id="vuesax/outline/translate">
<g id="translate">
<path id="Vector" d="M14.79 19.4199C14.68 19.4199 14.56 19.3899 14.46 19.3399C14.09 19.1499 13.94 18.6999 14.12 18.3299L16.26 14.0599C16.39 13.8099 16.65 13.6499 16.93 13.6499C17.21 13.6499 17.47 13.8099 17.6 14.0699L19.74 18.3399C19.93 18.7099 19.78 19.1599 19.4 19.3499C19.03 19.5399 18.58 19.3899 18.39 19.0099L16.93 16.0799L15.47 19.0099C15.33 19.2699 15.06 19.4199 14.79 19.4199Z" fill="#5605BA"/>
<path id="Vector_2" d="M18.6801 18.6599H15.1602C14.7502 18.6599 14.4102 18.3199 14.4102 17.9099C14.4102 17.4999 14.7502 17.1599 15.1602 17.1599H18.6801C19.0901 17.1599 19.4301 17.4999 19.4301 17.9099C19.4301 18.3199 19.1001 18.6599 18.6801 18.6599Z" fill="#5605BA"/>
<path id="Vector_3" d="M16.9198 22.7501C13.7098 22.7501 11.0898 20.14 11.0898 16.92C11.0898 13.7 13.6998 11.0901 16.9198 11.0901C20.1298 11.0901 22.7498 13.7 22.7498 16.92C22.7498 20.14 20.1398 22.7501 16.9198 22.7501ZM16.9198 12.6C14.5298 12.6 12.5898 14.5401 12.5898 16.9301C12.5898 19.3201 14.5298 21.2601 16.9198 21.2601C19.2998 21.2601 21.2498 19.3201 21.2498 16.9301C21.2498 14.5401 19.3098 12.6 16.9198 12.6Z" fill="#5605BA"/>
<path id="Vector_4" d="M4.61 12.46C3.5 12.46 2.62 12.15 2 11.55C1.34 10.91 1 9.94 1 8.69V4.77002C1 2.34002 2.34 1 4.77 1H8.69C9.94 1 10.9 1.33 11.55 2C12.18 2.65 12.49 3.59004 12.46 4.79004V8.69C12.49 9.91 12.18 10.87 11.53 11.52C10.88 12.17 9.91999 12.47 8.67999 12.45H4.78C4.71 12.46 4.66 12.46 4.61 12.46ZM4.77 2.51001C3.16 2.51001 2.5 3.17003 2.5 4.78003V8.70001C2.5 9.53001 2.67999 10.13 3.03999 10.48C3.38999 10.82 3.95001 10.97 4.74001 10.96H8.67999C9.51999 10.98 10.1 10.81 10.45 10.46C10.8 10.11 10.96 9.52002 10.94 8.71002V4.77002C10.96 3.97002 10.8 3.39999 10.46 3.04999C10.11 2.68999 9.50999 2.51001 8.67999 2.51001H4.77Z" fill="#5605BA"/>
<path id="Vector_5" d="M9 22.75C4.73 22.75 1.25 19.27 1.25 15C1.25 14.59 1.59 14.25 2 14.25C2.41 14.25 2.75 14.59 2.75 15C2.75 17.96 4.81 20.44 7.58 21.09L7.31 20.64C7.1 20.28 7.21001 19.82 7.57001 19.61C7.92001 19.4 8.39001 19.51 8.60001 19.87L9.64999 21.62C9.78999 21.85 9.79 22.14 9.66 22.37C9.52 22.6 9.27 22.75 9 22.75Z" fill="#5605BA"/>
<path id="Vector_6" d="M21.9999 9.75C21.5899 9.75 21.2499 9.41 21.2499 9C21.2499 6.04 19.1899 3.55997 16.4199 2.90997L16.6899 3.35999C16.8999 3.71999 16.7899 4.18001 16.4299 4.39001C16.0799 4.60001 15.6099 4.49001 15.3999 4.13L14.3499 2.38C14.2099 2.15 14.2099 1.86 14.3399 1.63C14.4699 1.39 14.7199 1.25 14.9899 1.25C19.2599 1.25 22.7399 4.73 22.7399 9C22.7499 9.41 22.4099 9.75 21.9999 9.75Z" fill="#5605BA"/>
</g>
</g>
</svg>
