<svg width="40" height="40" viewBox="0 0 40 40" fill="none" xmlns="http://www.w3.org/2000/svg">
<g id="vuesax/outline/user-octagon">
<g id="user-octagon">
<path id="Vector" d="M20.0003 37.9166C18.8837 37.9166 17.7503 37.6332 16.7503 37.0499L6.85034 31.3332C4.85034 30.1666 3.60034 28.0166 3.60034 25.6999V14.2999C3.60034 11.9833 4.85034 9.83327 6.85034 8.66661L16.7503 2.94995C18.7503 1.78328 21.2337 1.78328 23.2503 2.94995L33.1503 8.66661C35.1503 9.83327 36.4003 11.9833 36.4003 14.2999V25.6999C36.4003 28.0166 35.1503 30.1666 33.1503 31.3332L23.2503 37.0499C22.2503 37.6332 21.117 37.9166 20.0003 37.9166ZM20.0003 4.58325C19.317 4.58325 18.617 4.7666 18.0003 5.1166L8.10034 10.8333C6.86701 11.5499 6.10034 12.8666 6.10034 14.2999V25.6999C6.10034 27.1166 6.86701 28.4499 8.10034 29.1666L18.0003 34.8832C19.2337 35.5999 20.767 35.5999 22.0003 34.8832L31.9003 29.1666C33.1337 28.4499 33.9003 27.1332 33.9003 25.6999V14.2999C33.9003 12.8833 33.1337 11.5499 31.9003 10.8333L22.0003 5.1166C21.3837 4.7666 20.6837 4.58325 20.0003 4.58325Z" fill="#100123"/>
<path id="Vector_2" d="M19.9998 19.5835C17.1665 19.5835 14.8665 17.2835 14.8665 14.4502C14.8665 11.6168 17.1665 9.31689 19.9998 9.31689C22.8331 9.31689 25.1331 11.6168 25.1331 14.4502C25.1331 17.2835 22.8331 19.5835 19.9998 19.5835ZM19.9998 11.8169C18.5498 11.8169 17.3665 13.0002 17.3665 14.4502C17.3665 15.9002 18.5498 17.0835 19.9998 17.0835C21.4498 17.0835 22.6331 15.9002 22.6331 14.4502C22.6331 13.0002 21.4498 11.8169 19.9998 11.8169Z" fill="#100123"/>
<path id="Vector_3" d="M26.6666 29.0167C25.9833 29.0167 25.4166 28.4501 25.4166 27.7667C25.4166 25.4667 22.9833 23.5835 19.9999 23.5835C17.0166 23.5835 14.5833 25.4667 14.5833 27.7667C14.5833 28.4501 14.0166 29.0167 13.3333 29.0167C12.6499 29.0167 12.0833 28.4501 12.0833 27.7667C12.0833 24.0834 15.6333 21.0835 19.9999 21.0835C24.3666 21.0835 27.9166 24.0834 27.9166 27.7667C27.9166 28.4501 27.3499 29.0167 26.6666 29.0167Z" fill="#100123"/>
</g>
</g>
</svg>
