<svg width="127" height="32" viewBox="0 0 127 32" fill="none" xmlns="http://www.w3.org/2000/svg">
<g id="Layer_1" clip-path="url(#clip0_1_2568)">
<g id="Group">
<path id="Vector" d="M107.682 0H93.9891C93.6888 0 93.4607 0.236025 93.4607 0.51341V13.8315C93.4607 14.1089 93.6888 14.3449 93.9891 14.3449H107.682C107.982 14.3449 108.224 14.1093 108.224 13.8315V0.51341C108.224 0.236025 107.982 0 107.682 0ZM105.702 1.68319L102.84 4.4485V2.23482C103.945 1.88055 104.95 1.73444 105.702 1.68319ZM101.769 5.48342L99.7725 7.41297V3.81776C100.312 3.41584 100.881 3.04629 101.513 2.74778C101.599 2.70687 101.683 2.68034 101.769 2.64258V5.48387V5.48342ZM98.7013 8.44744L97.3294 9.77322L97.2637 6.52642C97.682 5.86375 98.166 5.27302 98.7013 4.73938V8.44744ZM96.2291 8.61782L96.2726 10.7942L95.3883 11.6484C95.5836 10.5478 95.8691 9.54304 96.2286 8.61827H96.2291V8.61782ZM97.0175 11.5418L97.0296 11.5427L100.042 11.6538H100.046C98.4228 12.3956 96.8602 12.6204 95.8409 12.6783L97.0175 11.5418ZM101.734 10.6683L98.0721 10.5298H98.0651L99.4625 9.17934L103.484 9.07953C102.965 9.68016 102.38 10.2089 101.734 10.6683ZM104.279 8.01855L100.568 8.11071L102.541 6.20543L105.34 6.03459C105.04 6.75435 104.682 7.41073 104.279 8.01899V8.01855ZM105.729 4.96866L103.692 5.09274L106.311 2.563C106.166 3.41629 105.973 4.21922 105.73 4.96866H105.729ZM103.159 1.04076C101.801 1.39951 100.263 2.0433 98.8281 3.19195C96.6904 4.90212 95.2583 7.36892 94.5309 10.5245V1.04076H103.159ZM98.5408 13.3041C99.661 13.0061 100.9 12.4958 102.105 11.6857C102.186 11.6551 102.254 11.6034 102.31 11.5405C102.49 11.4133 102.673 11.3013 102.851 11.1592C103.655 10.5159 104.348 9.75479 104.955 8.90285C105.012 8.84935 105.059 8.78551 105.087 8.71178C106.029 7.33205 106.72 5.69337 107.153 3.80247V13.3037H98.5408V13.3041Z" fill="#5605BA"/>
<path id="Vector_2" d="M125.972 0H112.279C111.979 0 111.737 0.222088 111.737 0.51341V13.8315C111.737 14.1228 111.979 14.3449 112.279 14.3449H125.972C126.258 14.3449 126.5 14.1233 126.5 13.8315V0.51341C126.5 0.222088 126.258 0 125.972 0ZM125.429 10.7897C124.635 10.479 123.743 10.4925 122.955 10.8625L122.498 11.0707C121.941 11.3341 121.299 11.3341 120.742 11.0707L120.299 10.8625C119.443 10.4602 118.457 10.4602 117.601 10.8625L117.144 11.0707C116.587 11.3341 115.944 11.3341 115.388 11.0707L114.945 10.8625C114.274 10.542 113.515 10.488 112.807 10.671V9.00086L112.888 8.96219C113.446 8.69875 114.088 8.69875 114.644 8.96219L115.102 9.17035C115.958 9.57271 116.929 9.57271 117.786 9.17035L118.243 8.96219C118.8 8.69875 119.442 8.69875 119.999 8.96219L120.442 9.17035C121.299 9.57271 122.284 9.57271 123.14 9.17035L123.597 8.96219C124.155 8.69875 124.797 8.69875 125.353 8.96219L125.429 8.99771V10.7897H125.429ZM125.429 7.88322C124.673 7.64315 123.856 7.67642 123.126 8.01855L122.67 8.2267C122.113 8.49015 121.47 8.50408 120.914 8.2267L120.471 8.01855C119.614 7.61618 118.629 7.61618 117.772 8.01855L117.315 8.2267C116.758 8.50408 116.116 8.49015 115.559 8.2267L115.116 8.01855C114.386 7.67552 113.565 7.64315 112.808 7.88547V6.15687L112.889 6.11821C113.446 5.85476 114.088 5.85476 114.645 6.11821L115.102 6.32636C115.959 6.72873 116.944 6.72873 117.786 6.32636L118.243 6.11821C118.801 5.85476 119.443 5.85476 119.999 6.11821L120.457 6.32636C121.299 6.72873 122.284 6.72873 123.141 6.32636L123.598 6.11821C124.155 5.85476 124.797 5.85476 125.354 6.11821L125.429 6.15373V7.88322ZM125.429 5.03924C124.673 4.79962 123.856 4.83244 123.126 5.17456L122.67 5.39665C122.113 5.6601 121.47 5.64616 120.914 5.39665L120.471 5.17456C119.614 4.77219 118.629 4.77219 117.772 5.17456L117.315 5.39665C116.772 5.64616 116.116 5.64616 115.559 5.39665L115.116 5.17456C114.386 4.83154 113.565 4.79962 112.808 5.04149V3.31244L112.889 3.27377C113.446 3.01033 114.088 3.01033 114.645 3.27377L115.102 3.48193C115.959 3.88429 116.944 3.88429 117.786 3.48193L118.243 3.27377C118.786 3.01033 119.443 3.01033 119.999 3.27377L120.457 3.48193C121.299 3.88429 122.284 3.88429 123.141 3.48193L123.598 3.27377C124.155 3.01033 124.797 3.01033 125.354 3.27377L125.429 3.30929V5.03879V5.03924ZM125.429 1.04031V2.1984C124.679 1.95518 123.858 1.98665 123.126 2.33058L122.67 2.55221C122.113 2.81566 121.47 2.81566 120.914 2.55221L120.471 2.33058C119.614 1.92821 118.629 1.94215 117.772 2.33058L117.315 2.55221C116.772 2.80218 116.116 2.80218 115.559 2.55221L115.116 2.33058C114.386 1.98755 113.565 1.95518 112.808 2.1975V1.04031H125.429ZM112.808 13.3037V11.7621C113.344 11.5499 113.946 11.5549 114.474 11.7913L114.931 12.0134C115.788 12.4158 116.759 12.4158 117.616 12.0134L118.072 11.7913C118.615 11.5414 119.272 11.5414 119.828 11.7913L120.271 12.0134C121.128 12.4158 122.113 12.4158 122.97 12.0134L123.427 11.7913C123.984 11.5414 124.626 11.5414 125.183 11.7913L125.429 11.9091V13.3037H112.808Z" fill="#5605BA"/>
<path id="Vector_3" d="M107.696 17.6416H94.0035C93.7036 17.6416 93.4607 17.8772 93.4607 18.1685V31.4726C93.4607 31.764 93.7036 32 94.0035 32H107.696C107.996 32 108.224 31.764 108.224 31.4726V18.1685C108.224 17.8772 107.996 17.6416 107.696 17.6416ZM107.154 18.6819V24.3978C107.111 24.3699 107.068 24.342 107.025 24.3285L104.127 23.3021L104.984 21.4989C105.069 21.3047 105.027 21.0687 104.869 20.9163C104.712 20.7639 104.469 20.7221 104.27 20.8052L102.413 21.6374L101.342 18.8213C101.328 18.7655 101.285 18.7242 101.257 18.6824H107.154H107.154V18.6819ZM102.913 26.2702L103.398 27.2966L102.342 26.825C102.199 26.7692 102.042 26.7558 101.914 26.811C101.771 26.8663 101.671 26.9774 101.614 27.1163L100.843 29.1421L100.086 27.1163C100.029 26.9774 99.9146 26.8663 99.7859 26.811C99.7147 26.7971 99.6434 26.7832 99.5717 26.7832C99.5 26.7832 99.4287 26.7971 99.3575 26.825L98.3006 27.2966L98.786 26.2702C98.8434 26.1452 98.8434 25.9928 98.786 25.8539C98.7286 25.7154 98.6148 25.6183 98.4862 25.5626L96.4017 24.8271L98.4862 24.0781C98.6148 24.0228 98.7286 23.9257 98.786 23.7868C98.8434 23.6479 98.8434 23.5094 98.786 23.3705L98.3006 22.3441L99.3575 22.8157C99.4856 22.8715 99.643 22.8849 99.7855 22.8296C99.9141 22.7739 100.028 22.6633 100.085 22.5244L100.842 20.5126L101.613 22.5244C101.671 22.6633 101.77 22.7739 101.913 22.8296C102.042 22.8854 102.199 22.8715 102.341 22.8157L103.398 22.3441L102.912 23.3705C102.841 23.5094 102.841 23.6479 102.898 23.7868C102.955 23.9257 103.069 24.0228 103.212 24.0781L105.282 24.8271L103.212 25.5626C103.069 25.6183 102.955 25.715 102.898 25.8539C102.841 25.9928 102.841 26.1452 102.912 26.2702H102.913ZM94.5314 18.6819H100.443C100.4 18.7237 100.371 18.7651 100.343 18.8208L99.2723 21.6369L97.4303 20.8048C97.216 20.7216 96.9875 20.763 96.8306 20.9158C96.6589 21.0682 96.6164 21.3043 96.7163 21.4985L97.5733 23.3017L94.6748 24.3281C94.6175 24.342 94.5749 24.3699 94.5319 24.4112V18.6819H94.5314ZM94.5314 30.9592V25.2299C94.5744 25.2578 94.617 25.2857 94.6744 25.3131L97.5728 26.3534L96.7158 28.1427C96.6159 28.3369 96.6585 28.5725 96.8301 28.7253C96.987 28.8777 97.2295 28.9195 97.4298 28.8364L99.2719 28.0042L100.343 30.8203C100.357 30.8761 100.386 30.9174 100.414 30.9592H94.5309H94.5314ZM107.154 30.9592H101.271C101.299 30.9174 101.328 30.8761 101.342 30.8203L102.413 28.0042L104.269 28.8364C104.469 28.9195 104.712 28.8782 104.869 28.7253C105.026 28.5725 105.069 28.3369 104.983 28.1427L104.126 26.3534L107.025 25.3131C107.068 25.2991 107.11 25.2713 107.153 25.2438V30.9597H107.154V30.9592Z" fill="#5605BA"/>
<g id="Group_2">
<path id="Vector_4" d="M125.972 17.6416H112.279C111.979 17.6416 111.737 17.8772 111.737 18.1685V31.4726C111.737 31.764 111.979 32 112.279 32H125.972C126.272 32 126.5 31.764 126.5 31.4726V18.1685C126.5 17.8772 126.272 17.6416 125.972 17.6416ZM125.429 23.5791L120.405 18.6824H125.429V23.5791ZM117.838 18.6824L112.808 23.5845V18.6824H117.838ZM112.808 30.9597V25.0582L119.121 18.9049L125.429 25.0528V30.9597H112.808Z" fill="#5605BA"/>
<path id="Vector_5" d="M116.526 25.6067H118.813V23.3849C117.55 23.3849 116.526 24.3798 116.526 25.6067Z" fill="#5605BA"/>
<path id="Vector_6" d="M119.43 23.3854V25.6072H121.717C121.717 24.3803 120.693 23.3854 119.43 23.3854Z" fill="#5605BA"/>
<path id="Vector_7" d="M118.813 26.2594H116.526V28.4812H118.813V26.2594Z" fill="#5605BA"/>
<path id="Vector_8" d="M121.717 26.2594H119.43V28.4812H121.717V26.2594Z" fill="#5605BA"/>
</g>
</g>
<g id="Group_3">
<path id="Vector_9" d="M9.55803 7.46509L9.73155 8.64251L5.00774 9.95032L4.83423 8.75131L9.55803 7.46509Z" fill="#5605BA"/>
<path id="Vector_10" d="M15.3868 18.0246L15.3002 20.2482L14.9319 20.3138C11.27 20.3138 10.5764 17.9374 10.5547 14.2972C5.15902 15.8451 2.21203 18.2867 2.21203 21.2953C2.21203 23.1484 3.53399 25.2848 7.80248 25.2848C10.5542 25.2848 12.7863 24.4998 13.4147 24.2166L13.6965 26.2657C13.0681 26.5926 10.8578 27.6392 7.54244 27.6392C3.12218 27.6392 0.5 25.3499 0.5 21.5789C0.5 17.5679 4.01058 14.6029 8.14905 13.622H0.694801V11.442H13.3712V13.622C12.8729 13.7308 12.3963 13.818 11.9192 13.9488C11.941 16.7609 12.6128 17.9599 15.018 17.9599L15.3863 18.0255V18.0246H15.3868ZM7.52069 18.8748C8.19255 18.8748 8.69089 19.4197 8.69089 20.0738C8.69089 20.7279 8.19255 21.2512 7.52069 21.2512C6.84884 21.2512 6.32875 20.7063 6.32875 20.0738C6.32875 19.4412 6.82709 18.8748 7.52069 18.8748Z" fill="#5605BA"/>
<path id="Vector_11" d="M14.65 18.0683L15.0183 17.9595H18.7237L19.092 18.0683L19.0055 20.2046L18.6589 20.3134H14.9318L14.5635 20.2046L14.65 18.0683Z" fill="#5605BA"/>
<path id="Vector_12" d="M18.3556 18.0683L18.7239 17.9595H22.4293L22.7976 18.0683L22.7111 20.2046L22.3645 20.3134H18.6374L18.269 20.2046L18.3556 18.0683Z" fill="#5605BA"/>
<path id="Vector_13" d="M22.0609 18.0683L22.4292 17.9595H26.1346L26.5029 18.0683L26.4164 20.2046L26.0698 20.3134H22.3427L21.9744 20.2046L22.0609 18.0683Z" fill="#5605BA"/>
<path id="Vector_14" d="M25.7662 18.0683L26.1345 17.9595H29.8399L30.2082 18.0683L30.1217 20.2046L29.7751 20.3134H26.048L25.6797 20.2046L25.7662 18.0683Z" fill="#5605BA"/>
<path id="Vector_15" d="M29.4715 18.0683L29.8399 17.9595H33.5452L33.9135 18.0683L33.827 20.2046L33.4805 20.3134H29.7533L29.385 20.2046L29.4715 18.0683Z" fill="#5605BA"/>
<path id="Vector_16" d="M33.1776 18.0683L33.5459 17.9595H37.2513L37.6196 18.0683L37.5331 20.2046L37.1865 20.3134H33.4594L33.0911 20.2046L33.1776 18.0683Z" fill="#5605BA"/>
<path id="Vector_17" d="M36.8829 18.0683L37.2512 17.9595H40.9566L41.3249 18.0683L41.2384 20.2046L40.8918 20.3134H37.1647L36.7964 20.2046L36.8829 18.0683Z" fill="#5605BA"/>
<path id="Vector_18" d="M40.5882 18.0683L40.9566 17.9595H44.6619L45.0302 18.0683L44.9437 20.2046L44.5972 20.3134H40.87L40.5017 20.2046L40.5882 18.0683Z" fill="#5605BA"/>
<path id="Vector_19" d="M44.2936 18.0683L44.6619 17.9595H48.3673L48.7356 18.0683L48.649 20.2046L48.3025 20.3134H44.5753L44.207 20.2046L44.2936 18.0683Z" fill="#5605BA"/>
<path id="Vector_20" d="M47.9989 18.0683L48.3672 17.9595H52.0726L52.4409 18.0683L52.3544 20.2046L52.0078 20.3134H48.2807L47.9124 20.2046L47.9989 18.0683Z" fill="#5605BA"/>
<path id="Vector_21" d="M51.7044 18.0683L52.0728 17.9595H55.7781L56.1465 18.0683L56.0599 20.2046L55.7134 20.3134H51.9862L51.6179 20.2046L51.7044 18.0683Z" fill="#5605BA"/>
<path id="Vector_22" d="M55.4098 18.0683L55.7781 17.9595H59.4835L59.8518 18.0683L59.7653 20.2046L59.4187 20.3134H55.6916L55.3232 20.2046L55.4098 18.0683Z" fill="#5605BA"/>
<path id="Vector_23" d="M59.1151 18.0683L59.4834 17.9595H63.1888L63.5571 18.0683L63.4706 20.2046L63.124 20.3134H59.3969L59.0286 20.2046L59.1151 18.0683Z" fill="#5605BA"/>
<path id="Vector_24" d="M72.55 5.63403L72.7235 6.81146L67.9997 8.11926L67.8262 6.92026L72.55 5.63403Z" fill="#5605BA"/>
<path id="Vector_25" d="M66.6123 9.30477C72.2245 10.4166 76.5152 12.4441 76.5152 16.2156C76.5152 18.766 74.9332 20.3575 72.138 20.3575C70.7513 20.3575 69.2345 19.965 67.9125 19.3329C66.4606 19.9434 64.7707 20.3139 63.1022 20.3139L62.7339 20.2482L62.8204 18.0246L63.1887 17.959C64.0336 17.959 64.922 17.8934 65.7239 17.7846C64.8355 16.9124 64.2719 15.8878 64.2719 14.776C64.2719 13.2718 64.9868 11.6151 66.2653 10.7214L66.6119 9.30432L66.6123 9.30477ZM65.8539 14.6677C65.8539 15.6707 66.9159 16.5208 68.3026 17.1309C69.7759 16.5424 70.6647 15.7139 70.6647 14.8201C70.6647 13.4903 69.8198 12.1389 68.2813 12.1389C66.7428 12.1389 65.8544 13.4467 65.8544 14.6677H65.8539ZM74.8684 16.368C74.8684 14.9294 73.6765 13.9048 72.0732 13.185C72.2032 13.6211 72.268 14.1008 72.268 14.58C72.268 15.779 71.5962 16.8908 70.513 17.7846C71.1413 17.9154 71.7697 17.9806 72.355 17.9806C74.0453 17.9806 74.8684 17.2829 74.8684 16.3675V16.368Z" fill="#5605BA"/>
<path id="Vector_26" d="M85.5517 7.05103L85.7252 8.22845L81.0014 9.53625L80.8279 8.33725L85.5517 7.05103Z" fill="#5605BA"/>
<path id="Vector_27" d="M87.7832 17.0873C87.7832 21.2076 85.8329 24.9134 80.1989 24.9134C78.9422 24.9134 77.7937 24.6954 77.2954 24.521L77.4689 22.341C78.0538 22.4718 79.0509 22.6242 80.2642 22.6242C84.3596 22.6242 86.0281 20.3134 86.1147 18.2643C85.5511 19.158 84.5327 19.9866 82.6911 19.9866C79.9824 19.9866 78.7039 18.2643 78.7039 16.1064C78.7039 13.2071 80.589 11.0271 83.3194 11.0271C86.2016 11.0271 87.7832 13.9048 87.7832 17.0873ZM86.0499 16.3024C85.7463 15.0161 84.8797 13.3811 83.1029 13.3811C81.3261 13.3811 80.3507 14.7109 80.3507 15.8663C80.3507 17.0217 81.3909 17.6758 82.9076 17.6758C84.5544 17.6758 85.5728 17.0437 86.0494 16.3024H86.0499Z" fill="#5605BA"/>
</g>
<g id="Group_4">
<path id="Vector_28" d="M23.1196 27.151C23.1196 27.3353 22.9687 27.6657 22.8563 27.6657C22.401 27.6657 22.1262 27.4603 22.0318 27.1096C21.6977 27.6064 20.9703 27.7938 20.3082 27.7938C19.3772 27.7938 19.0635 27.4724 19.0635 26.9729C19.0635 26.7828 19.1167 26.518 19.1787 26.3035L19.3531 26.2532C19.3268 26.3633 19.2851 26.482 19.2851 26.6128C19.2851 26.8718 19.4623 27.1572 20.4646 27.1572C21.4668 27.1572 21.8333 26.8893 21.9073 26.8151C21.9221 26.8003 21.9309 26.7288 21.9309 26.625C21.9309 26.5211 21.9013 24.5309 21.9013 24.4657C21.9013 24.3793 21.9281 24.2989 21.9633 24.2278C22.0461 24.0611 22.0845 23.9541 22.1997 23.7131L22.3358 23.6416C22.3061 23.7221 22.2946 24.2512 22.2946 24.8312C22.2946 25.4111 22.3066 26.0001 22.321 26.3067C22.3478 26.9311 22.581 27.0296 23.0423 27.0296C23.0983 27.0296 23.1191 27.0831 23.1191 27.1514H23.1196V27.151ZM20.0069 26.107C20.6186 26.107 21.024 25.9376 21.024 25.8661C21.024 25.8544 21.0152 25.8454 20.9916 25.8423C20.9 25.8333 20.7464 25.8243 20.5483 25.7946C20.3766 25.7708 20.3267 25.6845 20.3267 25.5356C20.3267 25.1908 20.6547 24.8456 20.9032 24.8456C21.0332 24.8456 21.11 24.9139 21.11 25.042C21.11 25.1045 21.0892 25.1728 21.0744 25.2146L20.9856 25.2416C20.956 25.1913 20.9236 25.1585 20.8347 25.1585C20.6751 25.1585 20.4919 25.3518 20.4919 25.4412C20.4919 25.4651 20.5155 25.483 20.5775 25.4916C20.6899 25.5096 20.8643 25.5271 21.03 25.5419C21.1748 25.5568 21.2017 25.6548 21.2017 25.7708C21.2017 25.9938 20.9768 26.3507 20.5631 26.3507C20.3975 26.3507 20.2027 26.3121 20.0486 26.223L20.0074 26.107H20.0069Z" fill="#5605BA"/>
<path id="Vector_29" d="M25.1508 27.0292C25.204 27.0292 25.2248 27.0827 25.2248 27.151C25.2248 27.3353 25.0772 27.6658 24.9615 27.6658H22.8567C22.8007 27.6658 22.7766 27.6181 22.7766 27.5466C22.7766 27.3623 22.9275 27.0292 23.0427 27.0292H25.1508Z" fill="#5605BA"/>
<path id="Vector_30" d="M25.1005 27.6656H24.9529C24.9024 27.6656 24.8821 27.6121 24.8821 27.5438C24.8821 27.3622 25.0329 27.0291 25.1481 27.0291H25.2957C25.8367 27.0291 26.0231 26.8357 26.0231 26.7939C26.0231 26.7049 25.9019 26.3538 25.6358 26.1187L25.9047 25.5774C26.1883 25.8449 26.2684 26.1367 26.2684 26.4666C26.2684 26.642 26.2327 26.9337 26.0939 27.1806C25.9371 27.4544 25.5974 27.6652 25.1005 27.6652V27.6656ZM25.5053 28.8287C25.4137 28.7365 25.1861 28.6264 25.0352 28.6084L25.3101 28.189C25.4933 28.2276 25.6502 28.2991 25.7918 28.4119L25.5049 28.8282H25.5053V28.8287ZM26.2503 28.7959C26.1587 28.7037 25.931 28.5936 25.7802 28.5756L26.055 28.1561C26.2383 28.1948 26.3951 28.2663 26.5367 28.3791L26.2498 28.7954H26.2503V28.7959Z" fill="#5605BA"/>
<path id="Vector_31" d="M27.247 26.6007C27.241 26.6511 27.2382 26.6929 27.2382 26.7347C27.2382 26.9667 27.3035 27.071 27.7143 27.071C28.2108 27.071 28.3797 26.8925 28.3797 26.839C28.3797 26.741 28.1405 25.9376 28.0368 25.5779C28.0456 25.4413 28.1905 25.1616 28.2909 25.0128C28.3737 25.2776 28.4565 25.5599 28.6041 26.0716C28.8346 26.8776 28.9322 27.0291 29.3875 27.0291C29.4435 27.0291 29.4643 27.0826 29.4643 27.1541C29.4643 27.3357 29.3167 27.6657 29.201 27.6657C28.6661 27.6657 28.5181 27.2553 28.4709 27.071C28.4473 27.2225 28.4029 27.3834 28.3376 27.4576C28.24 27.5704 27.9799 27.7134 27.6311 27.7134C27.2141 27.7134 27.0249 27.5466 27.0249 27.1986C27.0249 26.9725 27.0693 26.7765 27.0957 26.6394L27.2465 26.6007H27.247Z" fill="#5605BA"/>
<path id="Vector_32" d="M31.495 27.0292C31.5482 27.0292 31.569 27.0827 31.569 27.151C31.569 27.3353 31.4214 27.6658 31.3058 27.6658H29.2009C29.1449 27.6658 29.1208 27.6181 29.1208 27.5466C29.1208 27.3623 29.2717 27.0292 29.3869 27.0292H31.495Z" fill="#5605BA"/>
<path id="Vector_33" d="M31.4447 27.6656H31.2971C31.2467 27.6656 31.2263 27.6121 31.2263 27.5438C31.2263 27.3622 31.3772 27.0291 31.4924 27.0291H31.64C32.1809 27.0291 32.3674 26.8357 32.3674 26.7939C32.3674 26.7049 32.2461 26.3538 31.9801 26.1187L32.2489 25.5774C32.5325 25.8449 32.6126 26.1367 32.6126 26.4666C32.6126 26.642 32.577 26.9337 32.4382 27.1806C32.2813 27.4544 31.9417 27.6652 31.4447 27.6652V27.6656ZM31.8496 28.8287C31.758 28.7365 31.5303 28.6264 31.3795 28.6084L31.6543 28.189C31.8376 28.2276 31.9944 28.2991 32.136 28.4119L31.8491 28.8282H31.8496V28.8287ZM32.5946 28.7959C32.5029 28.7037 32.2753 28.5936 32.1244 28.5756L32.3993 28.1561C32.5825 28.1948 32.7394 28.2663 32.881 28.3791L32.5941 28.7954H32.5946V28.7959Z" fill="#5605BA"/>
<path id="Vector_34" d="M37.999 27.1509C37.999 27.3353 37.8514 27.6657 37.7357 27.6657C37.62 27.6657 37.496 27.645 37.4192 27.5884C37.3956 27.8145 37.3451 28.0735 37.2184 28.3351C37.0203 28.7424 36.5771 29.1529 35.7965 29.1529C34.9627 29.1529 34.5962 28.6354 34.5962 27.9809C34.5962 27.6091 34.6938 27.3025 34.8211 26.9994L35.0219 26.9311C34.9418 27.1186 34.865 27.4099 34.865 27.636C34.865 28.0375 35.0483 28.4839 35.932 28.4839C36.9343 28.4839 37.1735 27.8532 37.1735 27.7583C37.1735 27.708 37.0846 27.3807 36.745 26.9491L36.9935 26.411H37.0347C37.1559 26.6668 37.3687 27.0296 37.9245 27.0296C37.9777 27.0296 37.9985 27.0799 37.9985 27.1514L37.999 27.1509ZM35.6873 25.9344C35.8913 25.9911 36.0773 26.1039 36.2166 26.2289C36.1898 26.3867 36.0866 26.571 35.9889 26.7135C35.8589 26.6124 35.6576 26.4874 35.4716 26.4487L35.6873 25.934V25.9344Z" fill="#5605BA"/>
<path id="Vector_35" d="M40.0297 27.0292C40.0829 27.0292 40.1037 27.0827 40.1037 27.151C40.1037 27.3353 39.9561 27.6658 39.8404 27.6658H37.7356C37.6796 27.6658 37.6555 27.6181 37.6555 27.5466C37.6555 27.3623 37.8064 27.0292 37.9216 27.0292H40.0297Z" fill="#5605BA"/>
<path id="Vector_36" d="M41.8927 27.151C41.8927 27.3353 41.7451 27.6657 41.6294 27.6657C41.1269 27.6657 40.9229 27.4517 40.8433 27.2404C40.7341 27.4248 40.4768 27.6657 39.841 27.6657C39.785 27.6657 39.761 27.6181 39.761 27.5466C39.761 27.3623 39.9118 27.0291 40.027 27.0291C40.6124 27.0291 40.8076 26.8151 40.9053 26.4609L41.0649 26.4191C41.0561 26.4519 41.0501 26.4995 41.0501 26.5589C41.0501 26.9365 41.4582 27.0287 41.8187 27.0287C41.8719 27.0287 41.8927 27.0822 41.8927 27.1505V27.151ZM40.5328 28.8436C40.4412 28.7514 40.2135 28.6413 40.0627 28.6233L40.3375 28.2039C40.5208 28.2425 40.6776 28.314 40.8192 28.4268L40.5323 28.8432H40.5328V28.8436ZM41.2777 28.8108C41.1861 28.7186 40.9585 28.6085 40.8076 28.5905L41.0825 28.171C41.2657 28.2097 41.4226 28.2812 41.5642 28.394L41.2773 28.8103H41.2777V28.8108Z" fill="#5605BA"/>
<path id="Vector_37" d="M43.9235 27.0292C43.9767 27.0292 43.9975 27.0827 43.9975 27.151C43.9975 27.3353 43.8499 27.6658 43.7342 27.6658H41.6294C41.5734 27.6658 41.5493 27.6181 41.5493 27.5466C41.5493 27.3623 41.7002 27.0292 41.8154 27.0292H43.9235Z" fill="#5605BA"/>
<path id="Vector_38" d="M43.7253 27.6656C43.6749 27.6598 43.6545 27.6121 43.6545 27.5438C43.6545 27.3622 43.8054 27.0291 43.9206 27.0291C44.4615 27.0291 44.648 26.8357 44.648 26.7939C44.648 26.7049 44.5267 26.3538 44.2607 26.1187L44.5295 25.5774C44.8132 25.8449 44.8932 26.1367 44.8932 26.4666C44.8932 26.642 44.8576 26.9337 44.7188 27.1806C44.5619 27.4544 44.2223 27.6652 43.7253 27.6652V27.6656ZM44.4467 28.9982C44.3463 28.897 44.0918 28.772 43.9234 28.7541L44.2306 28.287C44.4347 28.3288 44.6091 28.4088 44.7655 28.5338L44.4462 28.9977H44.4467V28.9982Z" fill="#5605BA"/>
<path id="Vector_39" d="M50.8649 27.151C50.8649 27.3353 50.7141 27.6657 50.6017 27.6657C50.1464 27.6657 49.8715 27.4603 49.7771 27.1096C49.443 27.6064 48.7157 27.7938 48.0535 27.7938C47.1226 27.7938 46.8088 27.4724 46.8088 26.9729C46.8088 26.7828 46.862 26.518 46.9241 26.3035L47.0985 26.2532C47.0721 26.3633 47.0305 26.482 47.0305 26.6128C47.0305 26.8718 47.2077 27.1572 48.2099 27.1572C49.2122 27.1572 49.5786 26.8893 49.6527 26.8151C49.6675 26.8003 49.6763 26.7288 49.6763 26.625C49.6763 26.5211 49.6466 24.5309 49.6466 24.4657C49.6466 24.3793 49.6735 24.2989 49.7086 24.2278C49.7915 24.0611 49.8299 23.9541 49.9451 23.7131L50.0811 23.6416C50.0515 23.7221 50.0399 24.2512 50.0399 24.8312C50.0399 25.4111 50.052 26.0001 50.0663 26.3067C50.0931 26.9311 50.3264 27.0296 50.7877 27.0296C50.8437 27.0296 50.8645 27.0831 50.8645 27.1514L50.8649 27.151ZM47.7523 26.107C48.364 26.107 48.7693 25.9376 48.7693 25.8661C48.7693 25.8544 48.7605 25.8454 48.7369 25.8423C48.6453 25.8333 48.4917 25.8243 48.2937 25.7946C48.122 25.7708 48.072 25.6845 48.072 25.5356C48.072 25.1908 48.4001 24.8456 48.6486 24.8456C48.7786 24.8456 48.8554 24.9139 48.8554 25.042C48.8554 25.1045 48.8346 25.1728 48.8198 25.2146L48.7309 25.2416C48.7013 25.1913 48.6689 25.1585 48.5801 25.1585C48.4205 25.1585 48.2372 25.3518 48.2372 25.4412C48.2372 25.4651 48.2608 25.483 48.3228 25.4916C48.4353 25.5096 48.6097 25.5271 48.7754 25.5419C48.9202 25.5568 48.947 25.6548 48.947 25.7708C48.947 25.9938 48.7221 26.3507 48.3085 26.3507C48.1428 26.3507 47.948 26.3121 47.7939 26.223L47.7528 26.107H47.7523Z" fill="#5605BA"/>
<path id="Vector_40" d="M52.8959 27.0292C52.9491 27.0292 52.9699 27.0827 52.9699 27.151C52.9699 27.3353 52.8223 27.6658 52.7066 27.6658H50.6018C50.5458 27.6658 50.5217 27.6181 50.5217 27.5466C50.5217 27.3623 50.6726 27.0292 50.7878 27.0292H52.8959Z" fill="#5605BA"/>
<path id="Vector_41" d="M54.7582 27.1509C54.7582 27.3353 54.6106 27.6657 54.4949 27.6657C53.9924 27.6657 53.7883 27.4517 53.7087 27.2404C53.5995 27.4247 53.3423 27.6657 52.7065 27.6657C52.6505 27.6657 52.6265 27.618 52.6265 27.5466C52.6265 27.3622 52.7773 27.0291 52.8925 27.0291C53.4779 27.0291 53.6731 26.8151 53.7707 26.4609L53.9304 26.419C53.9216 26.4519 53.9156 26.4995 53.9156 26.5589C53.9156 26.9365 54.3237 27.0287 54.6841 27.0287C54.7373 27.0287 54.7582 27.0822 54.7582 27.1505V27.1509ZM53.4158 26.0535C53.3242 25.9614 53.0966 25.8512 52.9457 25.8332L53.2206 25.4138C53.4038 25.4525 53.5607 25.5239 53.7023 25.6368L53.4154 26.0531H53.4158V26.0535ZM54.1608 26.0207C54.0692 25.9286 53.8415 25.8184 53.6907 25.8004L53.9655 25.381C54.1488 25.4196 54.3056 25.4911 54.4472 25.604L54.1603 26.0203H54.1608V26.0207Z" fill="#5605BA"/>
<path id="Vector_42" d="M56.7897 27.0292C56.8429 27.0292 56.8637 27.0827 56.8637 27.151C56.8637 27.3353 56.7161 27.6658 56.6004 27.6658H54.4956C54.4396 27.6658 54.4155 27.6181 54.4155 27.5466C54.4155 27.3623 54.5664 27.0292 54.6816 27.0292H56.7897Z" fill="#5605BA"/>
<path id="Vector_43" d="M58.652 27.1509C58.652 27.3353 58.5044 27.6657 58.3887 27.6657C57.8862 27.6657 57.6821 27.4517 57.6025 27.2404C57.4933 27.4247 57.2361 27.6657 56.6003 27.6657C56.5443 27.6657 56.5203 27.618 56.5203 27.5466C56.5203 27.3622 56.6711 27.0291 56.7863 27.0291C57.3716 27.0291 57.5669 26.8151 57.6645 26.4608L57.8242 26.419C57.8154 26.4518 57.8094 26.4995 57.8094 26.5588C57.8094 26.9365 58.2175 27.0286 58.5779 27.0286C58.6311 27.0286 58.652 27.0821 58.652 27.1505V27.1509ZM57.7117 26.0207C57.6113 25.9196 57.3568 25.7946 57.1884 25.777L57.4957 25.3099C57.6997 25.3517 57.8742 25.4318 58.0305 25.5568L57.7113 26.0207H57.7117Z" fill="#5605BA"/>
<path id="Vector_44" d="M60.6828 27.0292C60.736 27.0292 60.7568 27.0827 60.7568 27.151C60.7568 27.3353 60.6092 27.6658 60.4935 27.6658H58.3886C58.3327 27.6658 58.3086 27.6181 58.3086 27.5466C58.3086 27.3623 58.4594 27.0292 58.5747 27.0292H60.6828Z" fill="#5605BA"/>
<path id="Vector_45" d="M60.6329 27.6656H60.4853C60.4349 27.6656 60.4146 27.6121 60.4146 27.5438C60.4146 27.3622 60.5654 27.0291 60.6806 27.0291H60.8282C61.3691 27.0291 61.5556 26.8357 61.5556 26.7939C61.5556 26.7049 61.4344 26.3538 61.1683 26.1187L61.4371 25.5774C61.7208 25.8449 61.8008 26.1367 61.8008 26.4666C61.8008 26.642 61.7652 26.9337 61.6264 27.1806C61.4695 27.4544 61.1299 27.6652 60.6329 27.6652V27.6656ZM61.0378 28.8287C60.9462 28.7365 60.7186 28.6264 60.5677 28.6084L60.8426 28.189C61.0258 28.2276 61.1827 28.2991 61.3242 28.4119L61.0374 28.8282H61.0378V28.8287ZM61.7828 28.7959C61.6912 28.7037 61.4635 28.5936 61.3127 28.5756L61.5875 28.1561C61.7708 28.1948 61.9276 28.2663 62.0692 28.3791L61.7823 28.7954H61.7828V28.7959Z" fill="#5605BA"/>
<path id="Vector_46" d="M62.7795 26.6007C62.7735 26.6511 62.7707 26.6929 62.7707 26.7347C62.7707 26.9667 62.8359 27.071 63.2468 27.071C63.7433 27.071 63.9122 26.8925 63.9122 26.839C63.9122 26.741 63.673 25.9376 63.5693 25.5779C63.5781 25.4413 63.7229 25.1616 63.8233 25.0128C63.9062 25.2776 63.989 25.5599 64.1366 26.0716C64.367 26.8776 64.4647 27.0291 64.92 27.0291C64.976 27.0291 64.9968 27.0826 64.9968 27.1541C64.9968 27.3357 64.8492 27.6657 64.7335 27.6657C64.1986 27.6657 64.0505 27.2553 64.0033 27.071C63.9797 27.2225 63.9353 27.3834 63.8701 27.4576C63.7724 27.5704 63.5124 27.7134 63.1635 27.7134C62.7466 27.7134 62.5574 27.5466 62.5574 27.1986C62.5574 26.9725 62.6018 26.7765 62.6282 26.6394L62.779 26.6007H62.7795Z" fill="#5605BA"/>
<path id="Vector_47" d="M67.0275 27.0292C67.0807 27.0292 67.1015 27.0827 67.1015 27.151C67.1015 27.3353 66.9539 27.6658 66.8383 27.6658H64.7334C64.6774 27.6658 64.6538 27.6181 64.6538 27.5466C64.6538 27.3623 64.8047 27.0292 64.9199 27.0292H67.0275Z" fill="#5605BA"/>
<path id="Vector_48" d="M66.7583 27.5466C66.7583 27.365 66.9091 27.0292 67.0243 27.0292C67.5504 27.0292 67.6777 26.8538 67.8341 26.4937C68.0441 26.0118 68.2954 25.5986 68.641 25.5986C68.9867 25.5986 69.4156 26.0923 69.4156 26.6902C69.4156 27.1335 69.1732 27.7251 68.8035 27.7251C68.4902 27.7251 67.9817 27.5556 67.748 27.2908C67.5708 27.5498 67.2839 27.6658 66.8346 27.6658C66.7814 27.6658 66.7578 27.6181 66.7578 27.5466H66.7583ZM69.0524 27.1479C69.1028 27.1479 69.1232 27.106 69.1232 27.0647C69.1232 26.6304 68.7095 26.1426 68.461 26.1426C68.2306 26.1426 68.0562 26.5621 67.9821 26.7644C68.201 26.9815 68.7479 27.1483 69.0524 27.1483V27.1479Z" fill="#5605BA"/>
</g>
</g>
<defs>
<clipPath id="clip0_1_2568">
<rect width="126" height="32" fill="white" transform="translate(0.5)"/>
</clipPath>
</defs>
</svg>
