<svg width="26" height="24" viewBox="0 0 26 24" fill="none" xmlns="http://www.w3.org/2000/svg">
<g id="Frame 1000001124">
<g id="Group">
<path id="Vector" d="M15.9941 16.1668C12.0647 16.1668 8.86777 12.9679 8.8667 9.0373C8.86777 8.04094 9.67884 7.23071 10.6728 7.23071C10.7749 7.23071 10.8761 7.23932 10.9729 7.25654C11.1858 7.29204 11.3881 7.36414 11.5742 7.47281C11.6011 7.48895 11.6193 7.51478 11.6237 7.54491L12.0389 10.1628C12.0442 10.1929 12.0346 10.2241 12.0141 10.2467C11.785 10.5007 11.4924 10.6836 11.1665 10.775L11.0094 10.8191L11.0686 10.9709C11.6043 12.3352 12.695 13.4252 14.0601 13.9632L14.2117 14.0234L14.2558 13.8663C14.3473 13.5403 14.5301 13.2477 14.784 13.0185C14.8023 13.0013 14.827 12.9926 14.8517 12.9926C14.8571 12.9926 14.8625 12.9926 14.869 12.9937L17.4861 13.4091C17.5173 13.4144 17.5431 13.4316 17.5592 13.4585C17.6668 13.6447 17.7389 13.8481 17.7754 14.0611C17.7926 14.1558 17.8002 14.2559 17.8002 14.3602C17.8002 15.3555 16.9902 16.1657 15.9941 16.1668Z" fill="#5605BA"/>
<path id="Vector_2" d="M22.9624 10.8128C22.7504 8.4177 21.6533 6.19577 19.873 4.55704C18.082 2.90863 15.7586 2.00049 13.3286 2.00049C7.99543 2.00049 3.65617 6.34103 3.65617 11.6758C3.65617 13.4662 4.1499 15.2104 5.08466 16.7297L3 21.3457L9.67456 20.6345C10.8352 21.1101 12.0636 21.3511 13.3275 21.3511C13.6599 21.3511 14.0009 21.3339 14.343 21.2984C14.6442 21.2661 14.9486 21.2187 15.2476 21.1585C19.7138 20.2557 22.9742 16.2907 23 11.7274V11.6758C23 11.3853 22.9871 11.0948 22.9613 10.8139L22.9624 10.8128ZM9.93165 18.6084L6.23886 19.0022L7.34143 16.5586L7.12091 16.2627C7.10478 16.2412 7.08864 16.2197 7.07036 16.1949C6.11301 14.8726 5.60743 13.3102 5.60743 11.6769C5.60743 7.4181 9.0711 3.95341 13.3286 3.95341C17.3172 3.95341 20.6981 7.06625 21.024 11.0399C21.0412 11.2529 21.0509 11.467 21.0509 11.6779C21.0509 11.7382 21.0498 11.7974 21.0487 11.8609C20.967 15.4235 18.4789 18.4492 14.9981 19.2196C14.7324 19.2787 14.4602 19.3239 14.1892 19.353C13.9073 19.3853 13.618 19.4014 13.3308 19.4014C12.3078 19.4014 11.3139 19.2034 10.3748 18.8118C10.2705 18.7698 10.1683 18.7246 10.0726 18.6783L9.93272 18.6105L9.93165 18.6084Z" fill="#5605BA"/>
</g>
</g>
</svg>
