<svg width="41" height="40" viewBox="0 0 41 40" fill="none" xmlns="http://www.w3.org/2000/svg">
<g id="Group">
<path id="Vector" d="M40.4979 20.0007C40.4979 30.1019 33.0104 38.4529 23.2836 39.808C22.3741 39.9341 21.4436 40 20.4991 40C19.4088 40 18.3382 39.9131 17.2956 39.745C7.77331 38.2118 0.500244 29.9548 0.500244 20.0007C0.500244 8.95491 9.45494 0 20.5005 0C31.546 0 40.5007 8.95491 40.5007 20.0007H40.4979Z" fill="#5605BA"/>
<g id="layer1">
<path id="path1009" d="M8.61142 8.82202L17.8352 21.1543L8.55396 31.1813H10.6434L18.7699 22.4029L25.3353 31.1813H32.4444L22.7021 18.1553L31.3415 8.82202H29.2521L21.7688 16.9067L15.7219 8.82202H8.6128H8.61142ZM11.6832 10.3607H14.9484L29.3698 29.6425H26.1046L11.6832 10.3607Z" fill="white"/>
</g>
</g>
</svg>
